<?xml version="1.0" encoding="UTF-8"?>
<!DOCTYPE svg PUBLIC "-//W3C//DTD SVG 1.1//EN" "http://www.w3.org/Graphics/SVG/1.1/DTD/svg11.dtd">
<svg xmlns="http://www.w3.org/2000/svg" version="1.1" width="512px" height="512px" style="shape-rendering:geometricPrecision; text-rendering:geometricPrecision; image-rendering:optimizeQuality; fill-rule:evenodd; clip-rule:evenodd" xmlns:xlink="http://www.w3.org/1999/xlink">
<g><path style="opacity:0.996" fill="#000000" d="M -0.5,-0.5 C 170.167,-0.5 340.833,-0.5 511.5,-0.5C 511.5,170.167 511.5,340.833 511.5,511.5C 340.833,511.5 170.167,511.5 -0.5,511.5C -0.5,340.833 -0.5,170.167 -0.5,-0.5 Z"/></g>
<g><path style="opacity:1" fill="#e70001" d="M 79.5,214.5 C 86.6206,213.449 88.954,216.283 86.5,223C 80.2401,225.412 77.4068,223.245 78,216.5C 78.7172,215.956 79.2172,215.289 79.5,214.5 Z"/></g>
<g><path style="opacity:1" fill="#f3f3f3" d="M 216.5,247.5 C 215.506,257.653 215.172,267.986 215.5,278.5C 213.5,278.5 211.5,278.5 209.5,278.5C 209.828,267.986 209.494,257.653 208.5,247.5C 204.167,247.5 199.833,247.5 195.5,247.5C 195.5,245.167 195.5,242.833 195.5,240.5C 199.833,240.5 204.167,240.5 208.5,240.5C 208.334,236.154 208.501,231.821 209,227.5C 210.458,225.04 212.291,222.873 214.5,221C 221.076,219.623 227.743,219.123 234.5,219.5C 234.5,221.833 234.5,224.167 234.5,226.5C 229.156,226.334 223.823,226.501 218.5,227C 218,227.5 217.5,228 217,228.5C 216.501,232.486 216.334,236.486 216.5,240.5C 222.5,240.5 228.5,240.5 234.5,240.5C 234.5,242.833 234.5,245.167 234.5,247.5C 228.5,247.5 222.5,247.5 216.5,247.5 Z"/></g>
<g><path style="opacity:1" fill="#f0f0f0" d="M 41.5,234.5 C 47.5,234.5 53.5,234.5 59.5,234.5C 59.5,236.833 59.5,239.167 59.5,241.5C 53.5,241.5 47.5,241.5 41.5,241.5C 41.3335,251.172 41.5002,260.839 42,270.5C 42.5,271 43,271.5 43.5,272C 48.8229,272.499 54.1563,272.666 59.5,272.5C 59.5,274.833 59.5,277.167 59.5,279.5C 53.4908,279.666 47.4908,279.499 41.5,279C 38.7215,277.888 36.5549,276.055 35,273.5C 33.5712,262.912 33.0712,252.245 33.5,241.5C 29.1667,241.5 24.8333,241.5 20.5,241.5C 20.5,239.167 20.5,236.833 20.5,234.5C 24.8333,234.5 29.1667,234.5 33.5,234.5C 34.4834,230.702 34.8168,226.702 34.5,222.5C 36.5,222.5 38.5,222.5 40.5,222.5C 40.1832,226.702 40.5166,230.702 41.5,234.5 Z"/></g>
<g><path style="opacity:1" fill="#a5a5a5" d="M 41.5,234.5 C 40.5166,230.702 40.1832,226.702 40.5,222.5C 38.5,222.5 36.5,222.5 34.5,222.5C 34.8168,226.702 34.4834,230.702 33.5,234.5C 33.5,230.167 33.5,225.833 33.5,221.5C 36.1667,221.5 38.8333,221.5 41.5,221.5C 41.5,225.833 41.5,230.167 41.5,234.5 Z"/></g>
<g><path style="opacity:1" fill="#f0f0f0" d="M 346.5,234.5 C 352.5,234.5 358.5,234.5 364.5,234.5C 364.5,236.833 364.5,239.167 364.5,241.5C 358.5,241.5 352.5,241.5 346.5,241.5C 346.334,251.172 346.5,260.839 347,270.5C 347.5,271 348,271.5 348.5,272C 353.823,272.499 359.156,272.666 364.5,272.5C 364.5,274.833 364.5,277.167 364.5,279.5C 358.491,279.666 352.491,279.499 346.5,279C 344.04,277.542 341.873,275.709 340,273.5C 338.571,262.912 338.071,252.245 338.5,241.5C 334.167,241.5 329.833,241.5 325.5,241.5C 325.5,239.167 325.5,236.833 325.5,234.5C 329.833,234.5 334.167,234.5 338.5,234.5C 339.483,230.702 339.817,226.702 339.5,222.5C 341.5,222.5 343.5,222.5 345.5,222.5C 345.183,226.702 345.517,230.702 346.5,234.5 Z"/></g>
<g><path style="opacity:1" fill="#a6a6a6" d="M 346.5,234.5 C 345.517,230.702 345.183,226.702 345.5,222.5C 343.5,222.5 341.5,222.5 339.5,222.5C 339.817,226.702 339.483,230.702 338.5,234.5C 338.5,230.167 338.5,225.833 338.5,221.5C 341.167,221.5 343.833,221.5 346.5,221.5C 346.5,225.833 346.5,230.167 346.5,234.5 Z"/></g>
<g><path style="opacity:1" fill="#ededed" d="M 147.5,240.5 C 147.5,253.167 147.5,265.833 147.5,278.5C 145.5,278.5 143.5,278.5 141.5,278.5C 141.828,266.322 141.495,254.322 140.5,242.5C 137.799,238.533 134.966,238.533 132,242.5C 131.5,254.829 131.333,267.162 131.5,279.5C 129.5,279.5 127.5,279.5 125.5,279.5C 125.667,267.162 125.5,254.829 125,242.5C 122.633,239.068 119.966,238.735 117,241.5C 116.5,254.162 116.333,266.829 116.5,279.5C 113.833,279.5 111.167,279.5 108.5,279.5C 108.5,264.5 108.5,249.5 108.5,234.5C 110.833,234.5 113.167,234.5 115.5,234.5C 115.351,235.552 115.517,236.552 116,237.5C 121.229,232.084 126.229,232.417 131,238.5C 133.226,234.139 136.726,232.639 141.5,234C 144.409,235.406 146.409,237.572 147.5,240.5 Z"/></g>
<g><path style="opacity:1" fill="#efefef" d="M 189.5,258.5 C 180.167,258.5 170.833,258.5 161.5,258.5C 161.198,261.059 161.532,263.393 162.5,265.5C 164.76,273.099 169.76,275.599 177.5,273C 180.215,272.125 181.548,270.292 181.5,267.5C 184.167,267.5 186.833,267.5 189.5,267.5C 188.342,274.78 184.008,278.947 176.5,280C 160.538,280.533 153.205,272.7 154.5,256.5C 153.152,239.68 160.819,232.18 177.5,234C 188.881,238.678 192.881,246.844 189.5,258.5 Z"/></g>
<g><path style="opacity:1" fill="#ededed" d="M 253.5,233.5 C 259.072,232.99 264.405,233.823 269.5,236C 272.363,237.364 274.363,239.53 275.5,242.5C 276.48,254.783 276.813,267.116 276.5,279.5C 273.833,279.5 271.167,279.5 268.5,279.5C 269.187,273.401 267.854,272.901 264.5,278C 248.096,283.591 240.262,277.757 241,260.5C 242.892,256.942 245.725,254.442 249.5,253C 255.825,252.5 262.158,252.334 268.5,252.5C 269.222,242.401 264.555,238.568 254.5,241C 251.785,241.875 250.452,243.708 250.5,246.5C 247.833,246.5 245.167,246.5 242.5,246.5C 243.643,240.025 247.309,235.691 253.5,233.5 Z"/></g>
<g><path style="opacity:1" fill="#eeeeee" d="M 297.5,233.5 C 306.832,232.325 314.332,235.325 320,242.5C 320.497,244.81 320.663,247.143 320.5,249.5C 318.167,249.5 315.833,249.5 313.5,249.5C 313.731,246.215 312.397,243.715 309.5,242C 297.188,238.803 291.855,243.637 293.5,256.5C 291.354,269.859 296.688,275.026 309.5,272C 312.024,270.117 313.358,267.617 313.5,264.5C 315.833,264.5 318.167,264.5 320.5,264.5C 320.062,272.851 315.729,278.017 307.5,280C 297.257,281.796 290.09,277.963 286,268.5C 285.333,260.833 285.333,253.167 286,245.5C 287.993,239.675 291.826,235.675 297.5,233.5 Z"/></g>
<g><path style="opacity:1" fill="#0000ee" d="M 385.5,233.5 C 391.311,232.774 396.645,233.941 401.5,237C 404.135,238.961 405.969,241.461 407,244.5C 407.667,252.833 407.667,261.167 407,269.5C 402.459,278.186 395.293,281.686 385.5,280C 378.667,278.5 374.5,274.333 373,267.5C 372.333,260.167 372.333,252.833 373,245.5C 375.111,239.219 379.278,235.219 385.5,233.5 Z"/></g>
<g><path style="opacity:1" fill="#f5f5f5" d="M 452.5,253.5 C 450.167,253.5 447.833,253.5 445.5,253.5C 445.802,250.941 445.468,248.607 444.5,246.5C 443.746,243.909 442.079,242.076 439.5,241C 434.474,239.506 430.308,240.673 427,244.5C 425.543,256.065 425.043,267.732 425.5,279.5C 423.167,279.5 420.833,279.5 418.5,279.5C 418.5,264.5 418.5,249.5 418.5,234.5C 420.833,234.5 423.167,234.5 425.5,234.5C 425.338,236.527 425.505,238.527 426,240.5C 431.303,232.933 438.136,231.433 446.5,236C 451.889,240.612 453.889,246.445 452.5,253.5 Z"/></g>
<g><path style="opacity:1" fill="#f90000" d="M 86.5,235.5 C 86.5,247.833 86.5,260.167 86.5,272.5C 90.7016,272.183 94.7016,272.517 98.5,273.5C 98.5,275.167 98.5,276.833 98.5,278.5C 92.1667,278.5 85.8333,278.5 79.5,278.5C 79.8286,265.989 79.4952,253.655 78.5,241.5C 75.0381,240.518 71.3714,240.185 67.5,240.5C 67.5,238.833 67.5,237.167 67.5,235.5C 73.8333,235.5 80.1667,235.5 86.5,235.5 Z"/></g>
<g><path style="opacity:1" fill="#f1f1f1" d="M 475.5,293.5 C 472.612,294.01 470.279,293.344 468.5,291.5C 470.06,286.319 471.727,281.152 473.5,276C 468.464,262.395 463.131,248.895 457.5,235.5C 460.372,234.217 463.205,234.217 466,235.5C 469.804,245.912 473.804,256.245 478,266.5C 481.667,256.167 485.333,245.833 489,235.5C 491.795,234.217 494.628,234.217 497.5,235.5C 489.573,254.674 482.239,274.007 475.5,293.5 Z"/></g>
<g><path style="opacity:1" fill="#a70000" d="M 86.5,235.5 C 80.1667,235.5 73.8333,235.5 67.5,235.5C 67.5,237.167 67.5,238.833 67.5,240.5C 71.3714,240.185 75.0381,240.518 78.5,241.5C 74.5,241.5 70.5,241.5 66.5,241.5C 66.5,239.167 66.5,236.833 66.5,234.5C 73.3543,234.176 80.021,234.509 86.5,235.5 Z"/></g>
<g><path style="opacity:1" fill="#060606" d="M 182.5,252.5 C 175.833,252.5 169.167,252.5 162.5,252.5C 162.5,250.833 162.5,249.167 162.5,247.5C 162.84,244.325 164.507,242.159 167.5,241C 177.406,238.759 182.406,242.592 182.5,252.5 Z"/></g>
<g><path style="opacity:1" fill="#900001" d="M 78.5,241.5 C 79.4952,253.655 79.8286,265.989 79.5,278.5C 85.8333,278.5 92.1667,278.5 98.5,278.5C 98.5,276.833 98.5,275.167 98.5,273.5C 99.4614,275.265 99.7947,277.265 99.5,279.5C 92.5,279.5 85.5,279.5 78.5,279.5C 78.5,266.833 78.5,254.167 78.5,241.5 Z"/></g>
<g><path style="opacity:1" fill="#020008" d="M 386.5,240.5 C 389.187,240.336 391.854,240.503 394.5,241C 396.667,242.5 398.5,244.333 400,246.5C 400.667,253.167 400.667,259.833 400,266.5C 398.878,268.624 397.378,270.457 395.5,272C 391.833,272.667 388.167,272.667 384.5,272C 382.513,270.681 381.346,268.848 381,266.5C 380.333,259.5 380.333,252.5 381,245.5C 382.73,243.598 384.563,241.931 386.5,240.5 Z"/></g>
<g><path style="opacity:1" fill="#8e8e8e" d="M 147.5,240.5 C 148.495,253.323 148.829,266.323 148.5,279.5C 145.833,279.5 143.167,279.5 140.5,279.5C 140.5,267.167 140.5,254.833 140.5,242.5C 141.495,254.322 141.828,266.322 141.5,278.5C 143.5,278.5 145.5,278.5 147.5,278.5C 147.5,265.833 147.5,253.167 147.5,240.5 Z"/></g>
<g><path style="opacity:1" fill="#b2b2b2" d="M 208.5,247.5 C 209.494,257.653 209.828,267.986 209.5,278.5C 211.5,278.5 213.5,278.5 215.5,278.5C 215.172,267.986 215.506,257.653 216.5,247.5C 216.5,258.167 216.5,268.833 216.5,279.5C 213.833,279.5 211.167,279.5 208.5,279.5C 208.5,268.833 208.5,258.167 208.5,247.5 Z"/></g>
<g><path style="opacity:1" fill="#7f7f7f" d="M 162.5,247.5 C 162.5,249.167 162.5,250.833 162.5,252.5C 169.167,252.5 175.833,252.5 182.5,252.5C 175.687,253.491 168.687,253.825 161.5,253.5C 161.205,251.265 161.539,249.265 162.5,247.5 Z"/></g>
<g><path style="opacity:1" fill="#6b6b6b" d="M 444.5,246.5 C 445.468,248.607 445.802,250.941 445.5,253.5C 447.833,253.5 450.167,253.5 452.5,253.5C 450.052,254.473 447.385,254.806 444.5,254.5C 444.5,251.833 444.5,249.167 444.5,246.5 Z"/></g>
<g><path style="opacity:1" fill="#757575" d="M 189.5,258.5 C 180.682,259.493 171.682,259.827 162.5,259.5C 162.5,261.5 162.5,263.5 162.5,265.5C 161.532,263.393 161.198,261.059 161.5,258.5C 170.833,258.5 180.167,258.5 189.5,258.5 Z"/></g>
<g><path style="opacity:1" fill="#060606" d="M 251.5,258.5 C 257.167,258.5 262.833,258.5 268.5,258.5C 269.698,270.467 264.365,275.3 252.5,273C 247.577,268.456 247.244,263.623 251.5,258.5 Z"/></g>
<g><path style="opacity:1" fill="#727272" d="M 468.5,291.5 C 470.279,293.344 472.612,294.01 475.5,293.5C 473.052,294.473 470.385,294.806 467.5,294.5C 467.263,293.209 467.596,292.209 468.5,291.5 Z"/></g>
</svg>
